<?xml version="1.0" encoding="UTF-8"?>
<!DOCTYPE svg PUBLIC "-//W3C//DTD SVG 1.1//EN" "http://www.w3.org/Graphics/SVG/1.1/DTD/svg11.dtd">
<svg xmlns="http://www.w3.org/2000/svg" version="1.1" width="512px" height="512px" style="shape-rendering:geometricPrecision; text-rendering:geometricPrecision; image-rendering:optimizeQuality; fill-rule:evenodd; clip-rule:evenodd" xmlns:xlink="http://www.w3.org/1999/xlink">
<g><path style="opacity:0.959" fill="#000000" d="M 244.5,-0.5 C 251.833,-0.5 259.167,-0.5 266.5,-0.5C 292.976,8.46284 312.142,25.7962 324,51.5C 329.69,63.9241 333.356,76.9241 335,90.5C 335.57,110.506 335.403,130.506 334.5,150.5C 345.156,154.493 355.823,158.493 366.5,162.5C 367.749,164.136 369.416,165.303 371.5,166C 377.424,168.466 383.424,170.632 389.5,172.5C 402.248,177.638 414.915,182.972 427.5,188.5C 435.116,192.507 442.783,195.507 450.5,197.5C 468.36,205.261 486.36,212.761 504.5,220C 507.358,221.694 509.691,223.861 511.5,226.5C 511.5,243.167 511.5,259.833 511.5,276.5C 508.906,280.72 505.073,283.054 500,283.5C 441.493,278.472 382.993,273.472 324.5,268.5C 320.303,312.743 314.303,356.743 306.5,400.5C 307.189,402.353 308.522,403.519 310.5,404C 330.382,411.734 349.882,420.234 369,429.5C 369.667,430.833 370.333,432.167 371,433.5C 371.667,449.167 371.667,464.833 371,480.5C 368.714,486.773 364.214,489.44 357.5,488.5C 333.814,486.601 310.147,484.601 286.5,482.5C 283.64,493.653 278.307,503.32 270.5,511.5C 260.5,511.5 250.5,511.5 240.5,511.5C 232.693,503.32 227.36,493.653 224.5,482.5C 200.685,484.582 176.851,486.582 153,488.5C 146.459,489.328 142.126,486.662 140,480.5C 139.333,464.833 139.333,449.167 140,433.5C 141.588,428.948 144.755,426.115 149.5,425C 167.5,417.667 185.5,410.333 203.5,403C 204.059,402.275 204.392,401.442 204.5,400.5C 196.697,356.743 190.697,312.743 186.5,268.5C 128.013,273.473 69.5129,278.473 11,283.5C 5.9273,283.054 2.09397,280.72 -0.5,276.5C -0.5,259.833 -0.5,243.167 -0.5,226.5C 0.9809,223.522 3.31423,221.356 6.5,220C 24.6404,212.761 42.6404,205.261 60.5,197.5C 68.1874,195.526 75.8541,192.526 83.5,188.5C 96.1667,183.167 108.833,177.833 121.5,172.5C 129.762,170.31 137.428,166.977 144.5,162.5C 155.167,158.5 165.833,154.5 176.5,150.5C 175.597,130.506 175.43,110.506 176,90.5C 180.339,54.2882 197.506,26.1215 227.5,6C 233.16,3.50734 238.826,1.34067 244.5,-0.5 Z M 285.5,385.5 C 265.5,374.833 245.5,374.833 225.5,385.5C 209.006,288.556 200.173,190.89 199,92.5C 202.766,65.1075 215.599,43.2742 237.5,27C 252.33,19.9676 266.33,21.3009 279.5,31C 297.665,47.5309 308.498,68.0309 312,92.5C 310.827,190.889 301.994,288.556 285.5,385.5 Z M 90.5,210.5 C 90.3337,217.175 90.5004,223.842 91,230.5C 93.5793,238.708 99.0793,241.541 107.5,239C 110,237.833 111.833,236 113,233.5C 113.5,222.505 113.667,211.505 113.5,200.5C 134.89,192.035 156.223,183.369 177.5,174.5C 179.652,196.48 181.652,218.48 183.5,240.5C 183.167,242.167 182.833,243.833 182.5,245.5C 128.863,250.331 75.1963,254.998 21.5,259.5C 21.1697,252.468 21.503,245.468 22.5,238.5C 45.1924,229.151 67.8591,219.818 90.5,210.5 Z M 394.5,199.5 C 394.333,210.172 394.5,220.839 395,231.5C 398.63,240.555 404.796,242.722 413.5,238C 415.041,236.421 416.208,234.587 417,232.5C 417.5,224.841 417.666,217.174 417.5,209.5C 441.223,218.965 464.89,228.632 488.5,238.5C 489.497,245.468 489.83,252.468 489.5,259.5C 435.809,254.998 382.143,250.331 328.5,245.5C 328.167,243.833 327.833,242.167 327.5,240.5C 329.348,218.48 331.348,196.48 333.5,174.5C 353.777,183.035 374.11,191.368 394.5,199.5 Z M 280.5,413.5 C 274.72,439.174 267.72,464.507 259.5,489.5C 256.833,489.5 254.167,489.5 251.5,489.5C 242.63,464.688 235.63,439.354 230.5,413.5C 242.091,399.538 256.091,396.705 272.5,405C 275.371,407.703 278.038,410.536 280.5,413.5 Z M 208.5,425.5 C 211.296,436.953 214.296,448.453 217.5,460C 199.175,461.666 180.841,463.166 162.5,464.5C 162.17,457.8 162.503,451.134 163.5,444.5C 178.682,438.337 193.682,432.003 208.5,425.5 Z M 301.5,425.5 C 316.812,431.821 332.145,438.154 347.5,444.5C 348.497,451.134 348.83,457.8 348.5,464.5C 330.153,463.23 311.82,461.73 293.5,460C 296.992,448.709 299.659,437.209 301.5,425.5 Z"/></g>
<g><path style="opacity:0.957" fill="#33cccc" d="M 249.5,68.5 C 261.468,67.7416 272.468,70.575 282.5,77C 285.372,79.5366 287.872,82.3699 290,85.5C 291.326,98.1763 285.826,103.01 273.5,100C 266.274,92.3599 257.607,90.0266 247.5,93C 243.411,96.0947 239.077,98.7614 234.5,101C 222.274,101.092 218.107,95.2582 222,83.5C 229.456,75.1915 238.623,70.1915 249.5,68.5 Z"/></g>
<g><path style="opacity:0.959" fill="#32cbcb" d="M 144.5,162.5 C 137.428,166.977 129.762,170.31 121.5,172.5C 121.5,165.167 121.5,157.833 121.5,150.5C 108.833,150.5 96.1667,150.5 83.5,150.5C 83.5,163.167 83.5,175.833 83.5,188.5C 75.8541,192.526 68.1874,195.526 60.5,197.5C 60.3334,176.497 60.5,155.497 61,134.5C 62.5629,131.272 65.0629,129.105 68.5,128C 91.1667,127.333 113.833,127.333 136.5,128C 140.333,129.167 142.833,131.667 144,135.5C 144.5,144.494 144.666,153.494 144.5,162.5 Z"/></g>
<g><path style="opacity:0.959" fill="#32cbcb" d="M 450.5,197.5 C 442.783,195.507 435.116,192.507 427.5,188.5C 427.5,175.833 427.5,163.167 427.5,150.5C 414.833,150.5 402.167,150.5 389.5,150.5C 389.5,157.833 389.5,165.167 389.5,172.5C 383.424,170.632 377.424,168.466 371.5,166C 369.416,165.303 367.749,164.136 366.5,162.5C 366.334,153.494 366.5,144.494 367,135.5C 368.167,131.667 370.667,129.167 374.5,128C 397.167,127.333 419.833,127.333 442.5,128C 445.937,129.105 448.437,131.272 450,134.5C 450.5,155.497 450.667,176.497 450.5,197.5 Z"/></g>
<g><path style="opacity:0.946" fill="#32cbcb" d="M 394.5,199.5 C 402.616,202.064 410.283,205.397 417.5,209.5C 417.666,217.174 417.5,224.841 417,232.5C 416.208,234.587 415.041,236.421 413.5,238C 404.796,242.722 398.63,240.555 395,231.5C 394.5,220.839 394.333,210.172 394.5,199.5 Z"/></g>
<g><path style="opacity:0.978" fill="#32cbcb" d="M 113.5,200.5 C 113.667,211.505 113.5,222.505 113,233.5C 111.833,236 110,237.833 107.5,239C 99.0793,241.541 93.5793,238.708 91,230.5C 90.5004,223.842 90.3337,217.175 90.5,210.5C 97.7593,206.407 105.426,203.074 113.5,200.5 Z"/></g>
<g><path style="opacity:0.962" fill="#32cbcb" d="M 285.5,385.5 C 285.069,395.186 283.403,404.52 280.5,413.5C 278.038,410.536 275.371,407.703 272.5,405C 256.091,396.705 242.091,399.538 230.5,413.5C 227.597,404.52 225.931,395.186 225.5,385.5C 245.5,374.833 265.5,374.833 285.5,385.5 Z"/></g>
</svg>
